<svg viewBox="0 0 13.5 13.5" version="1.1" xmlns="http://www.w3.org/2000/svg" xmlns:xlink="http://www.w3.org/1999/xlink">
<path fill="rgb(153, 0, 38)" d="M12.7,13.5h-12c-0.4,0-0.8-0.3-0.8-0.8v-12C0,0.3,0.3,0,0.8,0h4c0.4,0,0.8,0.3,0.8,0.8S5.2,1.5,4.8,1.5H1.5V12H12V8.8	C12,8.3,12.3,8,12.7,8s0.8,0.3,0.8,0.8v4C13.5,13.2,13.2,13.5,12.7,13.5z"/>
<path fill="rgb(153, 0, 38)" d="M13.4,0.5c-0.1-0.2-0.2-0.3-0.4-0.4C12.9,0,12.8,0,12.7,0h-4C8.3,0,8,0.3,8,0.8s0.3,0.8,0.7,0.8h2.2L6.2,6.2
C5.9,6.5,5.9,7,6.2,7.3c0.1,0.1,0.3,0.2,0.5,0.2s0.4-0.1,0.5-0.2L12,2.6v2.2c0,0.4,0.3,0.8,0.8,0.8s0.8-0.3,0.8-0.8v-4
C13.5,0.7,13.5,0.6,13.4,0.5z"/>
</svg>