<svg xmlns="http://www.w3.org/2000/svg" xmlns:xlink="http://www.w3.org/1999/xlink">
    <g id="Page-1" stroke="none" stroke-width="1" fill="none" fill-rule="evenodd">
        <g id="icon-sprite" fill-rule="nonzero">
            <path d="M18.012,191.425 C8.954,191.425 1.708,198.91 1.708,208.265 C1.708,215.75 6.418,221.925 12.939,224.17 C13.845,224.357 14.026,223.796 14.026,223.422 L14.026,220.615 C9.497,221.551 8.591,218.37 8.591,218.37 C7.866,216.499 6.779,215.937 6.779,215.937 C5.33,214.814 6.96,215.001 6.96,215.001 C8.59,215.188 9.496,216.685 9.496,216.685 C10.945,219.305 13.3,218.556 14.206,217.995 C14.387,216.872 14.749,216.124 15.293,215.75 C11.67,215.376 7.866,213.879 7.866,207.517 C7.866,205.646 8.591,204.149 9.496,203.026 C9.315,202.652 8.771,200.968 9.677,198.535 C9.677,198.535 11.126,198.161 14.206,200.219 C15.474,199.845 16.923,199.658 18.373,199.658 C19.822,199.658 21.09,199.845 22.54,200.219 C25.62,197.974 27.069,198.535 27.069,198.535 C27.975,200.78 27.431,202.652 27.25,203.026 C28.337,204.149 28.88,205.646 28.88,207.517 C28.88,214.066 25.076,215.376 21.453,215.75 C21.996,216.311 22.54,217.247 22.54,218.931 L22.54,223.609 C22.54,223.983 22.902,224.545 23.627,224.357 C30.148,222.112 34.677,215.75 34.677,208.452 C34.315,199.096 27.069,191.424 18.011,191.424 L18.012,191.425 Z" id="GH" fill="#829AA8"></path>
            <path d="M32.272,145.363 L28.53,142.86 L32.272,140.357 L32.272,145.363 Z M19.356,155.972 L19.356,148.996 L25.84,144.659 L31.074,148.16 L19.356,155.972 Z M17.861,146.398 L12.571,142.86 L17.861,139.322 L23.151,142.86 L17.861,146.398 Z M16.365,155.972 L4.646,148.16 L9.881,144.659 L16.365,148.996 L16.365,155.972 Z M3.449,140.357 L7.191,142.86 L3.449,145.363 L3.449,140.357 Z M16.365,129.747 L16.365,136.723 L9.881,141.061 L4.646,137.559 L16.365,129.747 Z M19.356,129.747 L31.074,137.559 L25.84,141.061 L19.356,136.723 L19.356,129.747 Z M35.25,137.362 L35.238,137.297 L35.212,137.171 L35.189,137.099 L35.15,136.99 L35.117,136.917 L35.066,136.818 L35.024,136.748 L34.961,136.657 L34.91,136.592 L34.835,136.511 L34.775,136.452 L34.69,136.381 L34.622,136.33 L34.597,136.312 L18.69,125.707 C18.188,125.372 17.533,125.372 17.031,125.707 L1.124,136.312 L1.099,136.33 L1.032,136.381 L0.947,136.452 L0.887,136.511 L0.813,136.592 L0.761,136.657 L0.698,136.748 L0.655,136.818 L0.604,136.917 L0.571,136.99 L0.532,137.099 L0.509,137.171 L0.483,137.297 L0.471,137.362 L0.457,137.557 L0.457,148.162 L0.471,148.358 L0.483,148.422 L0.509,148.548 L0.532,148.62 L0.571,148.73 L0.604,148.802 L0.655,148.902 L0.698,148.971 L0.761,149.062 L0.813,149.127 L0.887,149.208 L0.947,149.266 L1.032,149.338 L1.099,149.389 L1.124,149.407 L17.031,160.012 C17.282,160.18 17.572,160.264 17.861,160.264 C18.15,160.264 18.439,160.18 18.69,160.012 L34.597,149.407 L34.622,149.389 L34.69,149.338 L34.775,149.266 L34.835,149.208 L34.91,149.127 L34.961,149.062 L35.024,148.971 L35.066,148.902 L35.117,148.802 L35.15,148.73 L35.189,148.62 L35.212,148.548 L35.238,148.422 L35.25,148.358 L35.263,148.162 L35.263,137.557 L35.25,137.362 Z" id="CP" fill="#1A1918"></path>
            <g id="IG" transform="translate(1.000000, 63.000000)">
                <path d="M29.097,0 L5.111,0 C2.827,0 0.999,1.811 0.999,4.075 L0.999,12 L32.98,12 L32.98,4.075 C33.208,1.811 31.381,0 29.097,0 Z" id="Shape" fill="#895A4D"></path>
                <g id="Group" transform="translate(3.000000, 0.000000)">
                    <path d="M0.967,12 L2.963,12 L2.963,0 C2.076,0 1.619,0 0.967,0.188 L0.967,12 Z" id="Shape" fill="#FF3939"></path>
                    <polygon id="Shape" fill="#FED049" points="2.962 0 4.959 0 4.959 12 2.962 12"></polygon>
                    <polygon id="Shape" fill="#10DD76" points="4.737 0 6.734 0 6.734 12 4.737 12"></polygon>
                    <polygon id="Shape" fill="#5FCCFF" points="6.734 0 8.731 0 8.731 12 6.734 12"></polygon>
                </g>
                <g id="Group" transform="translate(24.000000, 2.000000)">
                    <circle id="Oval" fill="#162838" cx="3.263" cy="3.737" r="2.884"></circle>
                    <circle id="Oval" fill="#2C4356" cx="3.263" cy="3.737" r="1.553"></circle>
                    <circle id="Oval" fill="#47637A" cx="3.263" cy="3.737" r="1"></circle>
                </g>
                <path d="M1,12 L1,27.531 C1,29.75 2.816,31.525 5.085,31.525 L28.915,31.525 C31.185,31.525 33,29.75 33,27.531 L33,12 L1,12 Z" id="Shape" fill="#E5E0DC"></path>
                <polygon id="Shape" fill="#75483D" points="26.329 12.506 24.11 10.287 24.11 12.506"></polygon>
                <path d="M20.984,12.222 L11,22.206 L20.319,31.525 L28.972,31.525 C31.191,31.525 32.966,29.75 32.966,27.531 L32.966,19.1 L25.866,12 L20.985,12 L20.985,12.222 L20.984,12.222 Z" id="Shape" fill="#D0CBC5"></path>
                <g id="Group" transform="translate(7.000000, 6.000000)">
                    <circle id="Oval" fill="#DCD7D3" cx="10" cy="10" r="9.109"></circle>
                    <circle id="Oval" fill="#162838" cx="10" cy="10" r="7.24"></circle>
                    <circle id="Oval" fill="#2C4356" cx="10" cy="10" r="4.204"></circle>
                    <circle id="Oval" fill="#162838" cx="10" cy="10" r="2.102"></circle>
                    <circle id="Oval" fill="#47637A" cx="12.569" cy="7.431" r="1.635"></circle>
                </g>
            </g>
            <path d="M2.6,10.6 L9.2,10.6 L9.2,32 L2.6,32 L2.6,10.6 Z M5.8,0 C8,0 9.6,1.8 9.6,3.8 C9.6,6 7.8,7.6 5.8,7.6 C3.6,7.6 2,5.8 2,3.8 C2,1.8 3.8,0 5.8,0 Z M13.4,10.6 L19.8,10.6 L19.8,13.6 C20.6,12 22.8,10.2 26,10.2 C32.8,10.2 34,14.6 34,20.4 L34,32.2 L27.4,32.2 L27.4,21.8 C27.4,19.4 27.4,16.2 24,16.2 C20.6,16.2 20,18.8 20,21.6 L20,32.2 L13.4,32.2 L13.4,10.6 Z" id="IN" fill="#007BB5"></path>
        </g>
    </g>
</svg>